<svg xmlns="http://www.w3.org/2000/svg" fill="none" viewBox="0 0 30 30"><path fill-rule="evenodd" d="M1.754 15C1.754 7.684 7.684 1.754 15 1.754c7.315 0 13.245 5.93 13.245 13.246 0 7.315-5.93 13.245-13.245 13.245-7.316 0-13.246-5.93-13.246-13.245ZM15 3.654C8.734 3.654 3.654 8.734 3.654 15S8.734 26.345 15 26.345 26.345 21.265 26.345 15c0-6.266-5.08-11.346-11.345-11.346Zm4.707 6.639a1 1 0 0 1 0 1.414L16.414 15l3.293 3.293a1 1 0 0 1-1.414 1.414L15 16.414l-3.293 3.293a1 1 0 0 1-1.414-1.414L13.586 15l-3.293-3.293a1 1 0 0 1 1.414-1.414L15 13.586l3.293-3.293a1 1 0 0 1 1.414 0Z" clip-rule="evenodd"/></svg>