<svg xmlns="http://www.w3.org/2000/svg" fill="none" viewBox="0 0 186 134"><path d="M51.06 66.7A17.671 17.671 0 0 1 68.73 49h-.1A17.67 17.67 0 0 1 86.3 66.7a17.67 17.67 0 0 1-17.67 17.67h.1A17.67 17.67 0 0 1 51.06 66.7Zm82.67-31.33h32.9A17.672 17.672 0 0 0 184.3 17.7a17.673 17.673 0 0 0-10.901-16.352A17.671 17.671 0 0 0 166.63 0h-32.9a17.671 17.671 0 0 0-17.67 17.7 17.673 17.673 0 0 0 17.67 17.67Zm-113 98h63.9a17.673 17.673 0 0 0 17.67-17.67A17.67 17.67 0 0 0 84.63 98h-63.9a17.67 17.67 0 0 0-17.67 17.7 17.672 17.672 0 0 0 17.67 17.67Zm83.92-49h6.25L125.5 49h-8.35l-8.9 23.2h-.1L99.4 49h-8.9l14.15 35.37Zm32.45 0h7.8V49h-7.8v35.37Zm22.2 0h24.95V77.2H167.1V70h15.35v-7.2H167.1v-6.6h16.25V49h-24l-.05 35.37ZM10.1 35.4h7.8V6.9H28V0H0v6.9h10.1v28.5Zm28.9 0h7.8V20.1h15.1v15.3h7.8V0h-7.8v13.2H46.75V0H39v35.4Zm41.25 0h25v-7.2H88V21h15.35v-7.2H88V7.2h16.25V0h-24v35.4Zm-79 49H9V57.25h.1l9 27.15H24l9.3-27.15h.1V84.4h7.8V49H29.45l-8.2 23.1h-.1L13 49H1.2l.05 35.4Zm112.09 49H126a24.604 24.604 0 0 0 7.56-1.15 19.527 19.527 0 0 0 6.35-3.37 16.374 16.374 0 0 0 4.37-5.5 16.912 16.912 0 0 0 1.72-7.58 18.486 18.486 0 0 0-1.68-8.25 15.103 15.103 0 0 0-4.52-5.53 18.554 18.554 0 0 0-6.73-3.02 33.535 33.535 0 0 0-8.07-1h-11.71l.05 35.4Zm7.81-28.2h4.6a17.412 17.412 0 0 1 4.67.62 11.665 11.665 0 0 1 3.88 1.88 9.01 9.01 0 0 1 2.62 3.18 9.864 9.864 0 0 1 1 4.52 11.927 11.927 0 0 1-1 5.08 8.7 8.7 0 0 1-2.67 3.34 10.876 10.876 0 0 1-4 1.83c-1.64.378-3.318.562-5 .55h-4.15l.05-21Zm36.14 28.2h14.5a23.13 23.13 0 0 0 4.73-.5 13.39 13.39 0 0 0 4.27-1.65 9.427 9.427 0 0 0 3.1-3 8.523 8.523 0 0 0 1.2-4.68 9.16 9.16 0 0 0-.55-3.2 7.788 7.788 0 0 0-1.57-2.62 8.39 8.39 0 0 0-2.45-1.85 10.003 10.003 0 0 0-3.18-1v-.1a9.28 9.28 0 0 0 4.43-2.82 7.42 7.42 0 0 0 1.67-5 8.335 8.335 0 0 0-1.15-4.65 7.888 7.888 0 0 0-3-2.73 12.898 12.898 0 0 0-4.17-1.3 34.419 34.419 0 0 0-4.63-.32h-13.2v35.42Zm7.8-28.8h5.3c.62.003 1.239.06 1.85.17a5.76 5.76 0 0 1 1.7.58 3.33 3.33 0 0 1 1.23 1.13 3.22 3.22 0 0 1 .47 1.82 3.627 3.627 0 0 1-.42 1.8c-.27.488-.659.901-1.13 1.2a4.767 4.767 0 0 1-1.57.65 8.136 8.136 0 0 1-1.78.2H165l.09-7.55Zm0 14.15h5.9c.686.003 1.371.054 2.05.15a7.843 7.843 0 0 1 2 .55 3.997 3.997 0 0 1 1.58 1.17c.43.576.649 1.282.62 2a3.712 3.712 0 0 1-.47 1.95 4.002 4.002 0 0 1-1.23 1.3 4.778 4.778 0 0 1-1.67.7 8.865 8.865 0 0 1-1.83.2h-7l.05-8.02Z"/></svg>